<?xml version="1.0" encoding="utf-8"?>
<svg xmlns="http://www.w3.org/2000/svg" width="216" height="57" viewBox="0 0 216 57" fill="none">
<path d="M20.9179 14.7361C21.0031 14.7361 21.0883 14.7461 21.1785 14.7511C21.2437 14.7511 21.3038 14.7611 21.364 14.7662V9.64869C21.2186 9.64368 21.0683 9.63867 20.9179 9.63867C20.7675 9.63867 20.6222 9.64368 20.4718 9.64869V14.7662C20.5319 14.7662 20.5971 14.7511 20.6573 14.7511C20.7425 14.7511 20.8277 14.7361 20.9179 14.7361Z" fill="#1CC0DD"/>
<path d="M28.0002 21.5673H28.0102V21.8029C28.0102 21.8029 28.0102 21.8179 28.0102 21.8279C28.0102 21.8379 28.0102 21.843 28.0102 21.853V22.0886H28.0002C28.0002 22.1537 27.9902 22.2139 27.9851 22.274H33.1026C33.1076 22.1236 33.1126 21.9783 33.1126 21.8279C33.1126 21.6776 33.1076 21.5322 33.1026 21.3818H27.9851C27.9851 21.442 28.0002 21.5071 28.0002 21.5673Z" fill="#1CC0DD"/>
<path d="M21.1785 28.9205H20.6623V28.9054C20.5971 28.9054 20.537 28.8954 20.4768 28.8904V34.0078C20.6222 34.0129 20.7725 34.0179 20.9229 34.0179C21.0733 34.0179 21.2186 34.0129 21.369 34.0078V28.8904C21.3088 28.8904 21.2437 28.9054 21.1835 28.9054V28.9205H21.1785Z" fill="#1CC0DD"/>
<path d="M20.9179 14.7361C21.0031 14.7361 21.0883 14.7461 21.1785 14.7511C21.2437 14.7511 21.3038 14.7611 21.364 14.7662V9.64869C21.2186 9.64368 21.0683 9.63867 20.9179 9.63867C20.7675 9.63867 20.6222 9.64368 20.4718 9.64869V14.7662C20.5319 14.7662 20.5971 14.7511 20.6573 14.7511C20.7425 14.7511 20.8277 14.7361 20.9179 14.7361Z" fill="#1CC0DD"/>
<path d="M13.8256 22.0839V21.8483C13.8256 21.8483 13.8256 21.8333 13.8256 21.8283C13.8256 21.8233 13.8256 21.8132 13.8256 21.8082V21.5727H13.8356C13.8356 21.5075 13.8457 21.4474 13.8507 21.3872H8.73321C8.7282 21.5376 8.72318 21.6829 8.72318 21.8333C8.72318 21.9837 8.7282 22.129 8.73321 22.2794H13.8507C13.8507 22.2192 13.8356 22.1541 13.8356 22.0939H13.8256V22.0839Z" fill="#1CC0DD"/>
<path d="M28.0002 21.5673H28.0102V21.8029C28.0102 21.8029 28.0102 21.8179 28.0102 21.8279C28.0102 21.8379 28.0102 21.843 28.0102 21.853V22.0886H28.0002C28.0002 22.1537 27.9902 22.2139 27.9851 22.274H33.1026C33.1076 22.1236 33.1126 21.9783 33.1126 21.8279C33.1126 21.6776 33.1076 21.5322 33.1026 21.3818H27.9851C27.9851 21.442 28.0002 21.5071 28.0002 21.5673Z" fill="#1CC0DD"/>
<path d="M26.1155 26.66L25.9351 26.8405L25.7547 27.0209L25.7446 27.0109C25.6995 27.056 25.6494 27.0911 25.6043 27.1312L29.2231 30.75C29.3334 30.6497 29.4386 30.5495 29.5439 30.4442C29.6492 30.339 29.7494 30.2287 29.8496 30.1235L26.2308 26.5046C26.1907 26.5497 26.1556 26.5999 26.1105 26.645L26.1206 26.655L26.1155 26.66Z" fill="#1CC0DD"/>
<path d="M15.9057 16.811C15.9658 16.7509 16.036 16.6957 16.0961 16.6356C16.1412 16.5905 16.1914 16.5554 16.2365 16.5153L12.6176 12.8965C12.5074 12.9967 12.4021 13.097 12.2969 13.2022C12.1916 13.3075 12.0914 13.4178 11.9911 13.523L15.61 17.1418C15.65 17.0967 15.6851 17.0466 15.7302 17.0015C15.7904 16.9363 15.8405 16.8712 15.9057 16.811Z" fill="#1CC0DD"/>
<path d="M16.0861 27.0258L15.9207 26.8604C15.9207 26.8604 15.9107 26.8504 15.9057 26.8453C15.9007 26.8403 15.8957 26.8353 15.8907 26.8303L15.7252 26.6649L15.7353 26.6549C15.6902 26.6098 15.6551 26.5596 15.615 26.5095L11.9962 30.1283C12.0964 30.2386 12.1966 30.3439 12.3019 30.4491C12.4071 30.5544 12.5174 30.6546 12.6227 30.7549L16.2415 27.136C16.1964 27.096 16.1463 27.0558 16.0961 27.0158L16.0861 27.0258Z" fill="#1CC0DD"/>
<path d="M25.7446 16.6356L25.7547 16.6256L25.9201 16.791C25.9201 16.791 25.9301 16.801 25.9351 16.806C25.9401 16.811 25.9452 16.816 25.9502 16.821L26.1155 16.9864L26.1055 16.9965C26.1507 17.0416 26.1857 17.0917 26.2258 17.1418L29.8446 13.523C29.7444 13.4127 29.6442 13.3075 29.5389 13.2022C29.4336 13.097 29.3234 12.9967 29.2181 12.8965L25.5993 16.5153C25.6444 16.5554 25.6945 16.5955 25.7446 16.6356Z" fill="#1CC0DD"/>
<path d="M18.2263 15.2622C18.3065 15.2272 18.3867 15.2071 18.4719 15.177C18.5321 15.157 18.5922 15.142 18.6474 15.1219L16.7076 10.3904C16.5673 10.4405 16.4319 10.4906 16.2916 10.5508C16.1513 10.6109 16.0209 10.6711 15.8856 10.7312L17.8253 15.4627C17.8805 15.4377 17.9356 15.4026 17.9908 15.3775C18.0709 15.3424 18.1461 15.3023 18.2263 15.2673V15.2622Z" fill="#1CC0DD"/>
<path d="M27.3736 18.9011H27.3836L27.4738 19.1167C27.4738 19.1217 27.4789 19.1317 27.4839 19.1367C27.4889 19.1417 27.4839 19.1518 27.4939 19.1568L27.5841 19.3773H27.5741C27.5941 19.4425 27.6092 19.5026 27.6292 19.5628L32.3607 17.623C32.3106 17.4827 32.2605 17.3424 32.2004 17.207C32.1402 17.0717 32.0801 16.9364 32.0199 16.801L27.2884 18.7408C27.3135 18.7959 27.3485 18.851 27.3736 18.9062V18.9011Z" fill="#1CC0DD"/>
<path d="M27.5641 24.3242L27.4638 24.5648L27.3636 24.8054H27.3536C27.3285 24.8555 27.2934 24.9107 27.2683 24.9658L31.9899 26.9406C32.05 26.8053 32.1152 26.675 32.1703 26.5346C32.2254 26.3943 32.2806 26.259 32.3307 26.1186L27.6092 24.1438C27.5891 24.2039 27.5741 24.2641 27.554 24.3192H27.5641V24.3242Z" fill="#1CC0DD"/>
<path d="M23.4139 15.197V15.187L23.6345 15.2772C23.6395 15.2772 23.6495 15.2772 23.6545 15.2873C23.6596 15.2973 23.6696 15.2923 23.6746 15.2973L23.8901 15.3875V15.3975C23.9402 15.4226 23.9954 15.4577 24.0505 15.4827L26.0253 10.7612C25.89 10.7011 25.7546 10.6359 25.6193 10.5808C25.484 10.5257 25.3436 10.4705 25.2033 10.4204L23.2285 15.1419C23.2886 15.162 23.3488 15.177 23.4089 15.197H23.4139Z" fill="#1CC0DD"/>
<path d="M23.85 28.2888L23.6094 28.3891L23.3688 28.4893V28.4793C23.3037 28.4993 23.2435 28.5144 23.1884 28.5344L25.1281 33.266C25.2685 33.2158 25.4038 33.1657 25.5441 33.1056C25.6845 33.0454 25.8148 32.9853 25.9501 32.9251L24.0104 28.1936C23.9553 28.2187 23.9001 28.2537 23.845 28.2788V28.2888H23.85Z" fill="#1CC0DD"/>
<path d="M18.2263 15.2622C18.3065 15.2272 18.3867 15.2071 18.4719 15.177C18.5321 15.157 18.5922 15.142 18.6474 15.1219L16.7076 10.3904C16.5673 10.4405 16.4319 10.4906 16.2916 10.5508C16.1513 10.6109 16.0209 10.6711 15.8856 10.7312L17.8253 15.4627C17.8805 15.4377 17.9356 15.4026 17.9908 15.3775C18.0709 15.3424 18.1461 15.3023 18.2263 15.2673V15.2622Z" fill="#1CC0DD"/>
<path d="M14.4571 24.7604L14.3669 24.5398C14.3669 24.5398 14.3619 24.5248 14.3569 24.5198C14.3519 24.5148 14.3569 24.5047 14.3519 24.4997L14.2617 24.2792H14.2717C14.2517 24.214 14.2366 24.1539 14.2166 24.0938L9.48505 26.0335C9.53517 26.1738 9.58529 26.3142 9.64544 26.4495C9.70559 26.5848 9.76573 26.7202 9.82587 26.8555L14.5574 24.9158C14.5323 24.8606 14.4973 24.8055 14.4722 24.7503H14.4622L14.4571 24.7604Z" fill="#1CC0DD"/>
<path d="M27.3736 18.9011H27.3836L27.4738 19.1167C27.4738 19.1217 27.4789 19.1317 27.4839 19.1367C27.4889 19.1417 27.4839 19.1518 27.4939 19.1568L27.5841 19.3773H27.5741C27.5941 19.4425 27.6092 19.5026 27.6292 19.5628L32.3607 17.623C32.3106 17.4827 32.2605 17.3424 32.2004 17.207C32.1402 17.0717 32.0801 16.9364 32.0199 16.801L27.2884 18.7408C27.3135 18.7959 27.3485 18.851 27.3736 18.9062V18.9011Z" fill="#1CC0DD"/>
<path d="M27.5641 24.3242L27.4638 24.5648L27.3636 24.8054H27.3536C27.3285 24.8555 27.2934 24.9107 27.2683 24.9658L31.9899 26.9406C32.05 26.8053 32.1152 26.675 32.1703 26.5346C32.2254 26.3943 32.2806 26.259 32.3307 26.1186L27.6092 24.1438C27.5891 24.2039 27.5741 24.2641 27.554 24.3192H27.5641V24.3242Z" fill="#1CC0DD"/>
<path d="M14.377 19.0916C14.4121 19.0114 14.4521 18.9362 14.4872 18.856C14.5123 18.8009 14.5474 18.7458 14.5725 18.6906L9.85093 16.7158C9.79078 16.8511 9.72563 16.9815 9.6705 17.1218C9.61536 17.2621 9.56022 17.3975 9.5101 17.5378L14.2316 19.5126C14.2517 19.4525 14.2667 19.3923 14.2868 19.3372C14.3168 19.257 14.3419 19.1768 14.372 19.0916H14.377Z" fill="#1CC0DD"/>
<path d="M18.4218 28.4693L18.2013 28.3791C18.2013 28.3791 18.1862 28.3791 18.1812 28.3691C18.1762 28.359 18.1662 28.3641 18.1612 28.359L17.9406 28.2688V28.2588C17.8905 28.2337 17.8354 28.1986 17.7802 28.1736L15.8054 32.8951C15.9407 32.9552 16.0761 33.0204 16.2114 33.0755C16.3467 33.1307 16.4871 33.1858 16.6274 33.2359L18.6022 28.5144C18.5421 28.4944 18.482 28.4793 18.4218 28.4593V28.4693Z" fill="#1CC0DD"/>
<path d="M23.4139 15.197V15.187L23.6345 15.2772C23.6395 15.2772 23.6495 15.2772 23.6545 15.2873C23.6596 15.2973 23.6696 15.2923 23.6746 15.2973L23.8901 15.3875V15.3975C23.9402 15.4226 23.9954 15.4577 24.0505 15.4827L26.0253 10.7612C25.89 10.7011 25.7546 10.6359 25.6193 10.5808C25.484 10.5257 25.3436 10.4705 25.2033 10.4204L23.2285 15.1419C23.2886 15.162 23.3488 15.177 23.4089 15.197H23.4139Z" fill="#1CC0DD"/>
<path d="M23.8901 15.3926C23.8199 15.3575 23.7498 15.3225 23.6746 15.2924L23.6345 15.2723C23.5593 15.2423 23.4841 15.2222 23.414 15.1921L22.206 18.0792C22.3714 18.1343 22.5318 18.2045 22.6822 18.2797L23.8901 15.3926Z" fill="#FEBF10"/>
<path d="M17.9457 24.4346L15.7303 26.65C15.7854 26.7101 15.8305 26.7703 15.8907 26.8254L15.9208 26.8555C15.9759 26.9106 16.041 26.9607 16.0962 27.0159L18.3116 24.8005C18.1812 24.6852 18.061 24.5649 17.9457 24.4346Z" fill="#FEBF10"/>
<path d="M27.5691 19.3772C27.544 19.302 27.5189 19.2268 27.4889 19.1516L27.4739 19.1115C27.4438 19.0363 27.4037 18.9712 27.3736 18.896L24.4766 20.0839C24.5517 20.2393 24.6169 20.3997 24.677 20.5651L27.5741 19.3772H27.5691Z" fill="#FEBF10"/>
<path d="M18.4719 15.177C18.3917 15.2071 18.3065 15.2321 18.2263 15.2622C18.1461 15.2973 18.071 15.3374 17.9908 15.3725L19.1787 18.2695C19.3341 18.1944 19.4894 18.1292 19.6548 18.0741L18.4669 15.177H18.4719Z" fill="#FEBF10"/>
<path d="M21.1785 17.8786V14.746C21.0933 14.746 21.0081 14.731 20.9179 14.731C20.8277 14.731 20.7474 14.741 20.6572 14.746V17.8786C20.7424 17.8736 20.8277 17.8636 20.9179 17.8636C21.0081 17.8636 21.0883 17.8686 21.1785 17.8786Z" fill="#FEBF10"/>
<path d="M16.9733 21.5675H13.8406C13.8406 21.6477 13.8306 21.7229 13.8306 21.8031V21.8482C13.8306 21.9284 13.8406 22.0036 13.8406 22.0838H16.9733C16.9683 21.9986 16.9582 21.9134 16.9582 21.8231C16.9582 21.7329 16.9632 21.6477 16.9733 21.5625V21.5675Z" fill="#FEBF10"/>
<path d="M18.3116 18.8509L16.0962 16.6355C16.031 16.6956 15.9658 16.7458 15.9057 16.8109C15.8456 16.8711 15.7904 16.9412 15.7303 17.0014L17.9457 19.2168C18.061 19.0865 18.1812 18.9662 18.3116 18.8509Z" fill="#FEBF10"/>
<path d="M23.8951 19.2168L26.1105 17.0014C26.0554 16.9412 26.0103 16.8811 25.9501 16.826L25.92 16.7959C25.8649 16.7408 25.8048 16.6906 25.7446 16.6355L23.5292 18.8509C23.6596 18.9662 23.7798 19.0865 23.8951 19.2168Z" fill="#FEBF10"/>
<path d="M23.3688 28.4744C23.449 28.4443 23.5342 28.4192 23.6144 28.3892C23.6946 28.3541 23.7698 28.314 23.85 28.2789L22.6621 25.3818C22.5067 25.457 22.3514 25.5222 22.186 25.5773L23.3739 28.4744H23.3688Z" fill="#FEBF10"/>
<path d="M17.9507 28.259C18.0208 28.2941 18.091 28.3292 18.1662 28.3592L18.2063 28.3743C18.2815 28.4043 18.3567 28.4244 18.4318 28.4545L19.6398 25.5674C19.4744 25.5123 19.314 25.4421 19.1636 25.3669L17.9557 28.254L17.9507 28.259Z" fill="#FEBF10"/>
<path d="M20.6623 25.7727V28.9053C20.7475 28.9053 20.8327 28.9204 20.9229 28.9204C21.0131 28.9204 21.0933 28.9103 21.1836 28.9053V25.7727C21.0983 25.7777 21.0131 25.7877 20.9229 25.7877C20.8327 25.7877 20.7525 25.7827 20.6623 25.7727Z" fill="#FEBF10"/>
<path d="M28.0001 21.5674H24.8675C24.8725 21.6526 24.8825 21.7378 24.8825 21.828C24.8825 21.9182 24.8775 22.0034 24.8675 22.0886H28.0001C28.0001 22.0085 28.0102 21.9333 28.0102 21.8531V21.808C28.0102 21.7278 28.0001 21.6526 28.0001 21.5724V21.5674Z" fill="#FEBF10"/>
<path d="M27.3535 24.7953C27.3886 24.7151 27.4337 24.645 27.4638 24.5597C27.4939 24.4745 27.5189 24.3994 27.549 24.3141L24.662 23.1062C24.6069 23.2716 24.5367 23.427 24.4615 23.5824L27.3485 24.7903L27.3535 24.7953Z" fill="#FEBF10"/>
<path d="M14.4872 18.856C14.4521 18.9362 14.4071 19.0063 14.377 19.0915C14.3469 19.1767 14.3219 19.2519 14.2918 19.3371L17.1788 20.5451C17.234 20.3797 17.3041 20.2243 17.3793 20.0689L14.4922 18.861L14.4872 18.856Z" fill="#FEBF10"/>
<path d="M23.5292 24.8005L25.7446 27.0159C25.8098 26.9557 25.8749 26.9056 25.9351 26.8404C25.9952 26.7803 26.0504 26.7101 26.1105 26.65L23.8951 24.4346C23.7798 24.5649 23.6596 24.6852 23.5292 24.8005Z" fill="#FEBF10"/>
<path d="M14.2717 24.2741C14.2968 24.3493 14.3218 24.4244 14.3519 24.4996L14.3669 24.5397C14.397 24.6149 14.4371 24.6801 14.4672 24.7552L17.3643 23.5673C17.2891 23.412 17.2239 23.2516 17.1638 23.0862L14.2667 24.2741H14.2717Z" fill="#FEBF10"/>
<path d="M20.9179 34.0179C20.7675 34.0179 20.6222 34.0129 20.4718 34.0078C20.3716 34.0078 20.2663 33.9978 20.1661 33.9878V42.4133H21.6647V33.9878C21.5645 33.9928 21.4592 34.0028 21.359 34.0078C21.2136 34.0129 21.0633 34.0179 20.9129 34.0179H20.9179Z" fill="#0169A1"/>
<path d="M8.72818 21.8282C8.72818 21.6779 8.73321 21.5325 8.73822 21.3822C8.73822 21.2769 8.74823 21.1767 8.75826 21.0764H0.332733V22.5801H8.75826C8.75324 22.4798 8.74323 22.3746 8.73822 22.2743C8.73321 22.124 8.72818 21.9786 8.72818 21.8282Z" fill="#0169A1"/>
<path d="M41.503 21.0764H33.0775C33.0825 21.1767 33.0925 21.2819 33.0975 21.3822C33.1025 21.5325 33.1076 21.6779 33.1076 21.8282C33.1076 21.9786 33.1025 22.124 33.0975 22.2743C33.0975 22.3796 33.0875 22.4798 33.0775 22.5801H41.503V21.0764Z" fill="#0169A1"/>
<path d="M12.3019 30.4491C12.1966 30.3438 12.0964 30.2335 11.9961 30.1283C11.926 30.0531 11.8608 29.9729 11.7907 29.8977L5.83615 35.8522L6.89874 36.9148L12.8532 30.9603C12.7781 30.8901 12.6979 30.825 12.6227 30.7548C12.5124 30.6546 12.4071 30.5543 12.3019 30.4491Z" fill="#0169A1"/>
<path d="M20.9179 34.0179C20.7675 34.0179 20.6222 34.0129 20.4718 34.0078C20.3716 34.0078 20.2663 33.9978 20.1661 33.9878V42.4133H21.6647V33.9878C21.5645 33.9928 21.4592 34.0028 21.359 34.0078C21.2136 34.0129 21.0633 34.0179 20.9129 34.0179H20.9179Z" fill="#0169A1"/>
<path d="M8.72818 21.8282C8.72818 21.6779 8.73321 21.5325 8.73822 21.3822C8.73822 21.2769 8.74823 21.1767 8.75826 21.0764H0.332733V22.5801H8.75826C8.75324 22.4798 8.74323 22.3746 8.73822 22.2743C8.73321 22.124 8.72818 21.9786 8.72818 21.8282Z" fill="#0169A1"/>
<path d="M41.503 21.0764H33.0775C33.0825 21.1767 33.0925 21.2819 33.0975 21.3822C33.1025 21.5325 33.1076 21.6779 33.1076 21.8282C33.1076 21.9786 33.1025 22.124 33.0975 22.2743C33.0975 22.3796 33.0875 22.4798 33.0775 22.5801H41.503V21.0764Z" fill="#0169A1"/>
<path d="M20.4768 9.6336H21.364V9.64864C21.4642 9.64864 21.5695 9.65866 21.6697 9.66869V1.24316H20.1711V9.66869C20.2713 9.66368 20.3765 9.65365 20.4768 9.64864V9.6336Z" fill="#0169A1"/>
<path d="M29.5389 30.4492C29.4336 30.5544 29.3233 30.6547 29.2181 30.7549C29.1429 30.8251 29.0677 30.8902 28.9875 30.9604L34.947 36.9199L36.0046 35.8623L30.0451 29.9028C29.98 29.978 29.9098 30.0582 29.8396 30.1334C29.7394 30.2437 29.6391 30.3489 29.5339 30.4542L29.5389 30.4492Z" fill="#0169A1"/>
<path d="M12.3019 30.4491C12.1966 30.3438 12.0964 30.2335 11.9961 30.1283C11.926 30.0531 11.8608 29.9729 11.7907 29.8977L5.83615 35.8522L6.89874 36.9148L12.8532 30.9603C12.7781 30.8901 12.6979 30.825 12.6227 30.7548C12.5124 30.6546 12.4071 30.5543 12.3019 30.4491Z" fill="#0169A1"/>
<path d="M34.942 6.74121L28.9875 12.6957C29.0627 12.7659 29.1429 12.831 29.2181 12.9012C29.3284 13.0015 29.4336 13.1017 29.5389 13.207C29.6441 13.3122 29.7444 13.4225 29.8446 13.5277C29.9148 13.6029 29.98 13.6831 30.0501 13.7583L36.0046 7.8038L34.942 6.74121Z" fill="#0169A1"/>
<path d="M11.9861 13.5179L12.6126 12.8913L12.6227 12.9013C12.6979 12.8312 12.773 12.766 12.8532 12.6958L6.89372 6.73633L5.83615 7.7939L11.7956 13.7534C11.8608 13.6782 11.931 13.598 12.0012 13.5229L11.9911 13.5128L11.9861 13.5179Z" fill="#0169A1"/>
<path d="M25.5492 33.1055C25.4138 33.1607 25.2735 33.2108 25.1332 33.2659C25.038 33.301 24.9377 33.3311 24.8425 33.3662L28.0403 41.1602L29.4286 40.5938L26.2309 32.7998C26.1406 32.8449 26.0504 32.89 25.9552 32.9351C25.8198 32.9953 25.6845 33.0554 25.5492 33.1156V33.1055Z" fill="#0169A1"/>
<path d="M9.64044 26.4545C9.58531 26.3142 9.53518 26.1789 9.48005 26.0385C9.44496 25.9433 9.41488 25.843 9.3798 25.7478L1.58582 28.9456L2.15721 30.339L9.95119 27.1412C9.90609 27.051 9.861 26.9557 9.81589 26.8655C9.75574 26.7302 9.69056 26.5949 9.63542 26.4595L9.64044 26.4545Z" fill="#0169A1"/>
<path d="M39.6786 13.3175L31.8846 16.5153C31.9297 16.6055 31.9748 16.7008 32.02 16.791C32.0801 16.9263 32.1453 17.0616 32.2004 17.197C32.2555 17.3323 32.3056 17.4726 32.3608 17.613C32.3959 17.7082 32.4259 17.8085 32.461 17.9037L40.255 14.7059L39.6836 13.3125L39.6786 13.3175Z" fill="#0169A1"/>
<path d="M32.1653 26.5296C32.1102 26.6649 32.045 26.8002 31.9849 26.9356C31.9397 27.0308 31.8946 27.121 31.8495 27.2112L39.6235 30.4642L40.1999 29.0808L32.4259 25.8279C32.3908 25.9231 32.3608 26.0183 32.3257 26.1186C32.2756 26.2589 32.2204 26.3943 32.1653 26.5346V26.5296Z" fill="#0169A1"/>
<path d="M16.2165 33.0755C16.0761 33.0154 15.9458 32.9552 15.8105 32.8951C15.7152 32.85 15.625 32.8049 15.5348 32.7598L12.2869 40.5287L13.6753 41.1101L16.9232 33.3412C16.828 33.3061 16.7277 33.276 16.6325 33.2409C16.4921 33.1908 16.3568 33.1357 16.2165 33.0805V33.0755Z" fill="#0169A1"/>
<path d="M9.50008 17.5327L9.84091 16.7157H9.85091C9.89602 16.6255 9.94114 16.5353 9.98625 16.4451L2.21231 13.1921L1.63593 14.5755L9.40987 17.8284C9.44495 17.7332 9.475 17.638 9.51009 17.5377H9.50008V17.5327Z" fill="#0169A1"/>
<path d="M25.5492 33.1055C25.4138 33.1607 25.2735 33.2108 25.1332 33.2659C25.038 33.301 24.9377 33.3311 24.8425 33.3662L28.0403 41.1602L29.4286 40.5938L26.2309 32.7998C26.1406 32.8449 26.0504 32.89 25.9552 32.9351C25.8198 32.9953 25.6845 33.0554 25.5492 33.1156V33.1055Z" fill="#0169A1"/>
<path d="M9.64044 26.4545C9.58531 26.3142 9.53518 26.1789 9.48005 26.0385C9.44496 25.9433 9.41488 25.843 9.3798 25.7478L1.58582 28.9456L2.15721 30.339L9.95119 27.1412C9.90609 27.051 9.861 26.9557 9.81589 26.8655C9.75574 26.7302 9.69056 26.5949 9.63542 26.4595L9.64044 26.4545Z" fill="#0169A1"/>
<path d="M39.6786 13.3175L31.8846 16.5153C31.9297 16.6055 31.9748 16.7008 32.02 16.791C32.0801 16.9263 32.1453 17.0616 32.2004 17.197C32.2555 17.3323 32.3056 17.4726 32.3608 17.613C32.3959 17.7082 32.4259 17.8085 32.461 17.9037L40.255 14.7059L39.6836 13.3125L39.6786 13.3175Z" fill="#0169A1"/>
<path d="M15.8806 10.7159L16.7026 10.3801V10.3901C16.8029 10.355 16.9031 10.3249 16.9983 10.2898L13.8005 2.49585L12.4122 3.06223L15.61 10.8562C15.7002 10.8111 15.7904 10.766 15.8856 10.7209V10.7109L15.8806 10.7159Z" fill="#0169A1"/>
<path d="M32.1653 26.5296C32.1102 26.6649 32.045 26.8002 31.9849 26.9356C31.9397 27.0308 31.8946 27.121 31.8495 27.2112L39.6235 30.4642L40.1999 29.0808L32.4259 25.8279C32.3908 25.9231 32.3608 26.0183 32.3257 26.1186C32.2756 26.2589 32.2204 26.3943 32.1653 26.5346V26.5296Z" fill="#0169A1"/>
<path d="M16.2165 33.0755C16.0761 33.0154 15.9458 32.9552 15.8105 32.8951C15.7152 32.85 15.625 32.8049 15.5348 32.7598L12.2869 40.5287L13.6753 41.1101L16.9232 33.3412C16.828 33.3061 16.7277 33.276 16.6325 33.2409C16.4921 33.1908 16.3568 33.1357 16.2165 33.0805V33.0755Z" fill="#0169A1"/>
<path d="M28.1655 2.54603L24.9176 10.315C25.0128 10.35 25.1131 10.3801 25.2083 10.4152C25.3487 10.4653 25.484 10.5205 25.6243 10.5756C25.7647 10.6307 25.895 10.6959 26.0303 10.756C26.1256 10.8011 26.2158 10.8462 26.306 10.8914L29.5539 3.12243L28.1655 2.54102V2.54603Z" fill="#0169A1"/>
<path d="M9.50008 17.5327L9.84091 16.7157H9.85091C9.89602 16.6255 9.94114 16.5353 9.98625 16.4451L2.21231 13.1921L1.63593 14.5755L9.40987 17.8284C9.44495 17.7332 9.475 17.638 9.51009 17.5377H9.50008V17.5327Z" fill="#0169A1"/>
<path d="M70.2431 41.2957C68.6743 41.9623 66.9951 42.5236 65.2058 42.9747C63.4164 43.4258 61.6622 43.6514 59.933 43.6514C58.6749 43.6514 57.477 43.491 56.3392 43.1802C55.2014 42.8645 54.209 42.3582 53.3669 41.6465C52.5249 40.9398 51.8533 40.0225 51.3671 38.8798C50.8759 37.737 50.6303 36.3235 50.6303 34.6394V20.4449H46.801V12.0243H50.6303V2.30566H61.8225V12.0243H67.8873V20.4449H61.8225V30.6948C61.8225 31.7173 62.0381 32.429 62.4691 32.84C62.9002 33.251 63.4916 33.4566 64.2334 33.4566C64.7848 33.4566 65.4113 33.3713 66.118 33.1909C66.8247 33.0105 67.5315 32.7699 68.2382 32.4541L70.2381 41.2906L70.2431 41.2957Z" fill="#0169A1"/>
<path d="M104.577 42.9997H93.3844V25.5673C93.3844 24.0335 93.0385 22.9258 92.3519 22.2342C91.6652 21.5475 90.8131 21.2016 89.7906 21.2016C89.4348 21.2016 89.0137 21.3119 88.5225 21.5274C88.0313 21.743 87.5401 22.0387 87.0489 22.4096C86.5577 22.7855 86.0966 23.2416 85.6656 23.793C85.2345 24.3443 84.8837 24.9508 84.608 25.6174V42.9947H73.4157V0H84.608V16.6105C85.7057 14.9214 87.1392 13.6332 88.9085 12.7511C90.6778 11.8689 92.6576 11.4278 94.858 11.4278C97.0583 11.4278 98.7474 11.8038 100.041 12.5456C101.339 13.2924 102.316 14.2247 102.988 15.3474C103.654 16.4651 104.085 17.6731 104.281 18.9662C104.476 20.2644 104.577 21.4823 104.577 22.6201V42.9997Z" fill="#0169A1"/>
<path d="M131.021 21.5624C128.861 21.5624 126.901 21.798 125.132 22.2741C123.362 22.7453 122.049 23.5322 121.182 24.6299V43.0097H109.99V12.0292H120.24V17.9135C121.338 15.8335 122.706 14.2346 124.335 13.1168C125.964 11.9941 127.723 11.4377 129.603 11.4377C130.349 11.4377 130.821 11.4578 131.016 11.4929V21.5624H131.021Z" fill="#0169A1"/>
<path d="M134.5 9.42784V0.00488281H145.692V9.42784H134.5ZM134.5 42.9996V12.0192H145.692V42.9996H134.5Z" fill="#0169A1"/>
<path d="M159.004 42.9998L148.579 12.0193H160.062L165.6 34.2234L171.199 12.0193H181.624L171.199 42.9998H159.009H159.004Z" fill="#0169A1"/>
<path d="M198.701 43.5912C195.989 43.5912 193.578 43.1702 191.453 42.3281C189.328 41.4861 187.554 40.3333 186.125 38.8797C184.692 37.4262 183.599 35.7571 182.857 33.8725C182.111 31.9879 181.74 30.0081 181.74 27.923C181.74 25.6826 182.101 23.5674 182.832 21.5625C183.559 19.5576 184.637 17.8134 186.07 16.3248C187.504 14.8311 189.268 13.6382 191.373 12.7561C193.473 11.8739 195.919 11.4329 198.706 11.4329C201.493 11.4329 203.889 11.8739 206.009 12.7561C208.129 13.6382 209.908 14.8161 211.337 16.2897C212.77 17.7683 213.853 19.4724 214.575 21.4122C215.301 23.3569 215.667 25.3919 215.667 27.507C215.667 28.0985 215.637 28.6949 215.577 29.3064C215.517 29.9129 215.447 30.4592 215.372 30.9253H193.634C193.749 32.5744 194.36 33.7623 195.458 34.489C196.556 35.2158 197.759 35.5817 199.052 35.5817C200.27 35.5817 201.418 35.306 202.5 34.7597C203.578 34.2083 204.3 33.4415 204.65 32.4591L214.134 35.1707C212.875 37.6417 210.941 39.6666 208.329 41.2355C205.718 42.8093 202.51 43.5962 198.701 43.5962V43.5912ZM203.648 24.209C203.453 22.7204 202.901 21.5375 201.999 20.6754C201.097 19.8133 199.939 19.3822 198.526 19.3822C197.112 19.3822 195.954 19.8133 195.052 20.6754C194.15 21.5375 193.599 22.7153 193.403 24.209H203.653H203.648Z" fill="#0169A1"/>
<path d="M138.259 56.9938C137.883 56.9938 137.502 56.9638 137.116 56.9036C136.73 56.8435 136.354 56.7583 135.988 56.643C135.622 56.5277 135.271 56.3974 134.936 56.247C134.6 56.0966 134.294 55.9212 134.018 55.7307L135.848 53.1344C135.918 53.1846 136.048 53.2748 136.229 53.4101C136.414 53.5404 136.64 53.6757 136.91 53.8061C137.181 53.9414 137.482 54.0567 137.818 54.1569C138.153 54.2572 138.504 54.3073 138.87 54.3073C139.216 54.3073 139.437 54.2471 139.527 54.1319C139.617 54.0166 139.667 53.8863 139.667 53.7409C139.667 53.6106 139.612 53.4953 139.502 53.4001C139.391 53.3048 139.241 53.2146 139.061 53.1344C138.875 53.0542 138.665 52.974 138.429 52.8989C138.189 52.8237 137.943 52.7335 137.687 52.6332C137.016 52.3676 136.514 52.0468 136.184 51.6709C135.853 51.2949 135.687 50.8188 135.687 50.2374C135.687 49.5557 135.823 48.9492 136.098 48.4129C136.374 47.8766 136.735 47.4305 137.181 47.0596C137.627 46.6887 138.133 46.4131 138.7 46.2226C139.261 46.0321 139.838 45.9319 140.414 45.9319C140.79 45.9319 141.156 45.972 141.507 46.0472C141.857 46.1223 142.188 46.2176 142.499 46.3379C142.81 46.4582 143.095 46.5835 143.361 46.7188C143.627 46.8541 143.857 46.9844 144.063 47.1097L142.263 49.5657C142.263 49.5657 142.173 49.4956 142.028 49.3903C141.883 49.2851 141.687 49.1698 141.456 49.0495C141.221 48.9242 140.955 48.8189 140.665 48.7187C140.369 48.6234 140.068 48.5733 139.762 48.5733C139.537 48.5733 139.346 48.6234 139.191 48.7237C139.036 48.8239 138.955 48.9893 138.955 49.2149C138.955 49.4404 139.101 49.6259 139.396 49.7512C139.692 49.8715 140.083 50.0218 140.569 50.1923C140.935 50.3326 141.266 50.483 141.567 50.6333C141.867 50.7837 142.123 50.9641 142.344 51.1696C142.564 51.3751 142.73 51.6107 142.845 51.8864C142.96 52.1621 143.02 52.4879 143.02 52.8638C143.02 53.6357 142.875 54.2822 142.584 54.8085C142.294 55.3348 141.923 55.7558 141.461 56.0816C141.005 56.4074 140.494 56.643 139.928 56.7833C139.361 56.9237 138.805 56.9988 138.259 56.9988V56.9938Z" fill="#1CC0DD"/>
<path d="M146.343 53.2396L144.419 46.022H147.637L148.353 50.7084L151.115 46.022H154.348L149.281 53.2696L148.519 56.8584H145.556L146.333 53.2396H146.343Z" fill="#1CC0DD"/>
<path d="M152.844 56.8584L155.15 46.022H159.911C160.348 46.022 160.743 46.1122 161.089 46.2876C161.435 46.463 161.726 46.6986 161.956 46.9893C162.192 47.28 162.372 47.6108 162.498 47.9868C162.628 48.3627 162.688 48.7486 162.688 49.1446C162.688 49.5004 162.638 49.8513 162.538 50.2072C162.438 50.558 162.292 50.8989 162.102 51.2196C161.911 51.5454 161.686 51.8462 161.42 52.1268C161.154 52.4075 160.859 52.6531 160.533 52.8687L161.831 56.8534H158.473L157.42 53.5253H156.518L155.816 56.8534H152.839L152.844 56.8584ZM158.739 50.9339C158.819 50.9339 158.914 50.8989 159.014 50.8287C159.115 50.7585 159.215 50.6583 159.305 50.5229C159.395 50.3926 159.47 50.2322 159.536 50.0518C159.596 49.8663 159.626 49.6709 159.626 49.4553C159.626 49.1897 159.576 48.9842 159.48 48.8388C159.385 48.6935 159.275 48.6183 159.155 48.6183H157.581L157.095 50.9389H158.744L158.739 50.9339Z" fill="#1CC0DD"/>
<path d="M167.741 46.022H170.472L171.675 56.8584H168.653L168.548 54.7382H165.951L164.959 56.8584H161.921L167.736 46.022H167.741ZM168.502 52.7534L168.377 49.3952L166.808 52.7534H168.502Z" fill="#1CC0DD"/>
<path d="M176.697 56.9489C176.036 56.9489 175.449 56.8186 174.943 56.558C174.437 56.2973 174.001 55.9515 173.645 55.5204C173.289 55.0894 173.018 54.5932 172.833 54.0418C172.653 53.4855 172.557 52.9091 172.557 52.3076C172.557 51.5558 172.723 50.804 173.054 50.0521C173.384 49.3003 173.84 48.6186 174.427 48.0122C175.013 47.4057 175.705 46.9145 176.502 46.5335C177.299 46.1526 178.171 45.9622 179.118 45.9622C180.116 45.9622 180.938 46.1777 181.589 46.6137C182.241 47.0448 182.667 47.6162 182.872 48.3279L180.261 49.9469C180.221 49.6812 180.141 49.4657 180.026 49.2903C179.91 49.1198 179.765 48.9795 179.599 48.8793C179.434 48.779 179.249 48.7088 179.058 48.6637C178.863 48.6236 178.677 48.6036 178.492 48.6036C178.026 48.6036 177.61 48.7139 177.249 48.9394C176.888 49.165 176.582 49.4456 176.341 49.7915C176.096 50.1373 175.91 50.5132 175.785 50.9293C175.655 51.3403 175.595 51.7362 175.595 52.1121C175.595 52.4079 175.63 52.6885 175.7 52.9592C175.77 53.2299 175.88 53.4654 176.021 53.6609C176.161 53.8564 176.342 54.0168 176.557 54.1321C176.773 54.2473 177.023 54.3075 177.319 54.3075C177.499 54.3075 177.7 54.2824 177.905 54.2373C178.116 54.1922 178.316 54.112 178.517 54.0068C178.712 53.9015 178.903 53.7612 179.078 53.5958C179.254 53.4253 179.409 53.2198 179.544 52.9793L181.664 54.4278C181.429 54.8237 181.123 55.1796 180.742 55.4954C180.361 55.8112 179.94 56.0768 179.489 56.2873C179.038 56.5028 178.567 56.6632 178.076 56.7785C177.59 56.8888 177.123 56.9439 176.687 56.9439L176.697 56.9489Z" fill="#1CC0DD"/>
<path d="M186.707 56.9487C186.045 56.9487 185.479 56.8535 185.008 56.668C184.536 56.4826 184.15 56.2169 183.855 55.8811C183.559 55.5453 183.343 55.1493 183.208 54.6982C183.068 54.2471 183.003 53.7559 183.003 53.2246C183.003 52.6933 183.063 52.1621 183.183 51.5907L184.376 46.0221H187.353L186.16 51.5907C186.08 51.9967 186.04 52.3575 186.04 52.6733C186.04 53.1495 186.135 53.5454 186.321 53.8462C186.511 54.1519 186.827 54.3023 187.273 54.3023C187.579 54.3023 187.854 54.2271 188.1 54.0717C188.346 53.9213 188.561 53.7158 188.757 53.4702C188.952 53.2196 189.113 52.9339 189.238 52.6081C189.368 52.2823 189.468 51.9415 189.549 51.5857L190.742 46.0171H193.719L192.531 51.5857C192.365 52.3375 192.125 53.0442 191.799 53.7008C191.473 54.3574 191.067 54.9238 190.576 55.3999C190.085 55.8761 189.518 56.252 188.877 56.5277C188.23 56.8034 187.509 56.9387 186.717 56.9387L186.707 56.9487Z" fill="#1CC0DD"/>
<path d="M196.886 56.9938C196.511 56.9938 196.13 56.9638 195.744 56.9036C195.358 56.8435 194.982 56.7583 194.616 56.643C194.25 56.5277 193.899 56.3974 193.563 56.247C193.228 56.0966 192.922 55.9212 192.646 55.7307L194.476 53.1344C194.546 53.1846 194.676 53.2748 194.857 53.4101C195.042 53.5404 195.268 53.6757 195.538 53.8061C195.809 53.9414 196.11 54.0567 196.445 54.1569C196.781 54.2572 197.132 54.3073 197.498 54.3073C197.844 54.3073 198.064 54.2471 198.155 54.1319C198.245 54.0166 198.295 53.8863 198.295 53.7409C198.295 53.6106 198.24 53.4953 198.13 53.4001C198.019 53.3048 197.869 53.2146 197.688 53.1344C197.503 53.0542 197.293 52.974 197.057 52.8989C196.816 52.8237 196.571 52.7335 196.315 52.6332C195.644 52.3676 195.142 52.0468 194.811 51.6709C194.481 51.2949 194.315 50.8188 194.315 50.2374C194.315 49.5557 194.451 48.9492 194.726 48.4129C195.002 47.8766 195.363 47.4305 195.809 47.0596C196.255 46.6887 196.761 46.4131 197.328 46.2226C197.889 46.0321 198.465 45.9319 199.042 45.9319C199.418 45.9319 199.784 45.972 200.134 46.0472C200.485 46.1223 200.816 46.2176 201.127 46.3379C201.438 46.4582 201.723 46.5835 201.989 46.7188C202.255 46.8541 202.485 46.9844 202.691 47.1097L200.891 49.5657C200.891 49.5657 200.801 49.4956 200.656 49.3903C200.51 49.2851 200.315 49.1698 200.084 49.0495C199.849 48.9242 199.583 48.8189 199.292 48.7187C198.997 48.6234 198.696 48.5733 198.39 48.5733C198.165 48.5733 197.974 48.6234 197.819 48.7237C197.663 48.8239 197.583 48.9893 197.583 49.2149C197.583 49.4404 197.729 49.6259 198.024 49.7512C198.32 49.8715 198.711 50.0218 199.197 50.1923C199.563 50.3326 199.894 50.483 200.195 50.6333C200.495 50.7837 200.751 50.9641 200.971 51.1696C201.192 51.3751 201.357 51.6107 201.473 51.8864C201.588 52.1621 201.648 52.4879 201.648 52.8638C201.648 53.6357 201.503 54.2822 201.212 54.8085C200.921 55.3348 200.55 55.7558 200.089 56.0816C199.633 56.4074 199.122 56.643 198.556 56.7833C197.989 56.9237 197.433 56.9988 196.886 56.9988V56.9938Z" fill="#1CC0DD"/>
<path d="M204.5 46.022H211.733L211.181 48.6133H206.921L206.6 50.142H210.234L209.713 52.5529H206.084L205.718 54.262H210.114L209.562 56.8584H202.189L204.495 46.022H204.5Z" fill="#1CC0DD"/>
</svg>
